<svg id="svg2986" height="512" viewBox="0 0 6.3499999 6.3500002" width="512" xmlns="http://www.w3.org/2000/svg" xmlns:svg="http://www.w3.org/2000/svg"><g id="layer1" transform="translate(0 -290.65)"><path id="circle2859" d="m3.0392204 290.9074c-.9238131 0-1.6774171.75619-1.6774171 1.68 0 .56472.2825769 1.06508.7126182 1.36943-1.0030521.40191-1.71462415 1.38264-1.71462415 2.52697a.2646485.2646485 0 0 0 .52916669 0c0-1.21445.97920836-2.19315 2.19366446-2.19315.42393 0 .8174427.12085 1.1523845.32815a.26545233.26545233 0 1 0 .2790529-.45165c-.150926-.0934-.3147642-.16654-.4836914-.22945.4161642-.30591.6888467-.79685.6888467-1.3503-.0000011-.92381-.7561877-1.68-1.6800008-1.68zm0 .52968c.63783 0 1.1508341.51249 1.1508341 1.15032s-.5130041 1.14825-1.1508341 1.14825-1.1482504-.51042-1.1482504-1.14825c.000001-.63783.5104204-1.15032 1.1482504-1.15032zm2.6778729 3.17552a.26460982.26460982 0 0 0 -.214974.12144l-.9120891 1.36684-.572058-.38292a.26565215.26565215 0 1 0 -.2950726.44183l.7953004.52917a.26460982.26460982 0 0 0 .3669025-.0744l1.0588503-1.58801a.26460982.26460982 0 0 0 -.2268595-.41393z" font-variant-ligatures="normal" font-variant-position="normal" font-variant-caps="normal" font-variant-numeric="normal" font-variant-alternates="normal" font-feature-settings="normal" text-indent="0" text-align="start" text-decoration-line="none" text-decoration-style="solid" text-decoration-color="rgb(0,0,0)" text-transform="none" text-orientation="mixed" white-space="normal" shape-padding="0" isolation="auto" mix-blend-mode="normal" solid-color="rgb(0,0,0)" solid-opacity="1" vector-effect="none" paint-order="stroke fill markers"/></g></svg>