<svg height="512pt" viewBox="-33 0 512 512.00102" width="512pt" xmlns="http://www.w3.org/2000/svg"><path d="m361.824219 344.394531c-24.53125 0-46.632813 10.59375-61.972657 27.445313l-137.972656-85.453125c3.683594-9.429688 5.726563-19.671875 5.726563-30.386719 0-10.71875-2.042969-20.960938-5.726563-30.386719l137.972656-85.457031c15.339844 16.851562 37.441407 27.449219 61.972657 27.449219 46.210937 0 83.804687-37.59375 83.804687-83.804688 0-46.210937-37.59375-83.800781-83.804687-83.800781-46.210938 0-83.804688 37.59375-83.804688 83.804688 0 10.714843 2.046875 20.957031 5.726563 30.386718l-137.96875 85.453125c-15.339844-16.851562-37.441406-27.449219-61.972656-27.449219-46.210938 0-83.804688 37.597657-83.804688 83.804688 0 46.210938 37.59375 83.804688 83.804688 83.804688 24.53125 0 46.632812-10.59375 61.972656-27.449219l137.96875 85.453125c-3.679688 9.429687-5.726563 19.671875-5.726563 30.390625 0 46.207031 37.59375 83.800781 83.804688 83.800781 46.210937 0 83.804687-37.59375 83.804687-83.800781 0-46.210938-37.59375-83.804688-83.804687-83.804688zm-53.246094-260.589843c0-29.359376 23.886719-53.246094 53.246094-53.246094s53.246093 23.886718 53.246093 53.246094c0 29.359374-23.886718 53.246093-53.246093 53.246093s-53.246094-23.886719-53.246094-53.246093zm-224.773437 225.441406c-29.363282 0-53.25-23.886719-53.25-53.246094s23.886718-53.246094 53.25-53.246094c29.359374 0 53.242187 23.886719 53.242187 53.246094s-23.882813 53.246094-53.242187 53.246094zm224.773437 118.949218c0-29.359374 23.886719-53.246093 53.246094-53.246093s53.246093 23.886719 53.246093 53.246093c0 29.359376-23.886718 53.246094-53.246093 53.246094s-53.246094-23.886718-53.246094-53.246094zm0 0"/></svg>