<svg height="512pt" viewBox="0 0 512 512" width="512pt" xmlns="http://www.w3.org/2000/svg"><path d="m63.613281 190.464844c-11.371093-11.371094-17.613281-26.4375-17.613281-42.464844s6.242188-31.09375 17.574219-42.425781l100.324219-99.757813c7.832031-7.785156 20.496093-7.75 28.285156.082032 7.789062 7.832031 7.75 20.496093-.082032 28.28125l-100.285156 99.71875c-3.734375 3.738281-5.816406 8.757812-5.816406 14.101562 0 5.339844 2.082031 10.363281 5.859375 14.140625l100.242187 99.675781c7.832032 7.789063 7.871094 20.453125.082032 28.285156-3.910156 3.929688-9.046875 5.898438-14.183594 5.898438-5.101562 0-10.199219-1.9375-14.101562-5.816406zm428.386719-62.464844h-327c-11.046875 0-20 8.953125-20 20s8.953125 20 20 20h327c11.046875 0 20-8.953125 20-20s-8.953125-20-20-20zm-143.898438 93.816406c-7.832031-7.785156-20.496093-7.75-28.285156.082032-7.789062 7.832031-7.75 20.496093.082032 28.28125l100.242187 99.679687c3.777344 3.773437 5.859375 8.796875 5.859375 14.140625 0 5.339844-2.082031 10.363281-5.816406 14.101562l-100.285156 99.714844c-7.832032 7.789063-7.871094 20.453125-.082032 28.285156 3.910156 3.929688 9.046875 5.898438 14.183594 5.898438 5.097656 0 10.199219-1.9375 14.101562-5.816406l100.324219-99.757813c11.332031-11.332031 17.574219-26.398437 17.574219-42.425781s-6.242188-31.09375-17.613281-42.46875zm18.898438 142.183594c0-11.046875-8.953125-20-20-20h-327c-11.046875 0-20 8.953125-20 20s8.953125 20 20 20h327c11.046875 0 20-8.953125 20-20zm0 0"/></svg>