<svg id="Capa_1" enable-background="new 0 0 510.147 510.147" height="512" viewBox="0 0 510.147 510.147" width="512" xmlns="http://www.w3.org/2000/svg"><g><path d="m285.675 371.185c-.574-8.265-7.739-14.5-16.003-13.925-8.264.574-14.499 7.738-13.925 16.003l1.003 14.452c.573 8.255 7.725 14.497 16.003 13.925 8.264-.574 14.499-7.738 13.925-16.003z"/><path d="m356.766 334.257c-3.344-7.58-12.2-11.013-19.778-7.669-7.58 3.344-11.013 12.199-7.669 19.778l5.5 12.468c3.343 7.578 12.197 11.014 19.778 7.669 7.579-3.344 11.013-12.199 7.669-19.778z"/><path d="m426.228 298.047c-5.715-5.994-15.211-6.221-21.207-.503-5.995 5.717-6.22 15.212-.503 21.207l9.998 10.483c5.715 5.994 15.211 6.222 21.207.503 5.995-5.717 6.22-15.212.503-21.207z"/><path d="m267.759 448.691c-8.274.404-14.654 7.44-14.25 15.714l.731 14.956c.404 8.275 7.441 14.655 15.714 14.25 8.274-.404 14.654-7.44 14.25-15.714l-.731-14.956c-.404-8.275-7.444-14.648-15.714-14.25z"/><path d="m354.907 427.628c-2.354-7.943-10.703-12.474-18.645-10.118-7.943 2.354-12.473 10.702-10.118 18.645l4.005 13.511c2.357 7.952 10.712 12.471 18.645 10.118 7.943-2.354 12.473-10.702 10.118-18.645z"/><path d="m425.403 392.362c-4.279-7.094-13.499-9.376-20.592-5.096-7.094 4.279-9.375 13.498-5.096 20.592l7.279 12.067c4.278 7.093 13.497 9.376 20.592 5.096 7.094-4.279 9.375-13.499 5.096-20.592z"/><path d="m505.788 368.379-10.554-10.622c-5.838-5.876-15.335-5.908-21.213-.068-5.877 5.839-5.907 15.336-.068 21.213l10.554 10.622c5.832 5.871 15.331 5.913 21.213.068 5.876-5.839 5.906-15.337.068-21.213z"/><path d="m430.4 199.334-4.541-10.2c-7.506-16.863-25.321-25.978-42.746-23.249l-2.801-6.294c-16.317-36.646-54.769-56.826-93.181-50.682l-9.854-22.389c-23.115-52.514-75.128-86.447-132.507-86.447-79.827 0-144.77 64.944-144.77 144.77v350.23c0 8.284 6.716 15 15 15h60c8.284 0 15-6.716 15-15v-350.23c0-30.2 24.57-54.77 54.77-54.77 21.709 0 41.387 12.836 50.132 32.705l10.583 24.036c-27.506 24.941-36.453 65.054-20.936 99.924l2.804 6.292c-13.432 10.895-18.947 30.109-11.293 47.302l4.541 10.2c9.926 22.299 36.061 32.487 58.546 22.478l168.776-75.131c22.338-9.942 32.421-36.206 22.477-58.545zm-77.494-27.541 2.24 5.032-140.948 62.743-2.242-5.033c-12.785-28.732-.194-62.467 28.989-75.48l36.444-16.234c29.604-13.095 62.841.503 75.517 28.972zm-208.136-111.72c-46.742 0-84.77 38.028-84.77 84.77v335.23h-30v-335.23c0-63.284 51.486-114.77 114.77-114.77 45.49 0 86.725 26.901 105.051 68.533l8.704 19.776-27.405 12.208-8.761-19.898c-13.533-30.75-43.989-50.619-77.589-50.619zm250.952 170.4-168.776 75.131c-7.244 3.223-15.714-.027-18.938-7.271l-4.541-10.201c-2.249-5.05.019-10.958 5.071-13.207 12.921-5.752 172.89-76.962 176.708-78.662 5.039-2.242 10.964.032 13.208 5.071l4.541 10.2c3.215 7.226-.047 15.723-7.273 18.939z"/></g></svg>