<svg id="Capa_1" enable-background="new 0 0 512.01 512.01" height="512" viewBox="0 0 512.01 512.01" width="512" xmlns="http://www.w3.org/2000/svg"><g><g><g><path d="m405.437 17.056c-10.996-10.996-25.615-17.051-41.165-17.051-15.551 0-30.17 6.056-41.165 17.051l-293.853 293.852c-6.559 6.559-11.044 14.822-12.973 23.896l-16.063 75.61c-.704 3.312.316 6.755 2.711 9.149 1.895 1.895 4.447 2.929 7.071 2.929.691 0 1.388-.072 2.078-.218l75.61-16.063c9.073-1.927 17.336-6.413 23.896-12.972l293.853-293.853c22.698-22.698 22.698-59.631 0-82.33zm-107.349 53.303 54.046 54.045-10.795 10.794-54.045-54.045zm-49.873 49.873 19.951 19.951-186.15 186.15c-6.845.135-13.368-2.463-18.283-7.379-2.48-2.479-4.388-5.397-5.643-8.598zm-220.504 257.016 17.534 17.534-22.264 4.73zm55.821 9.399-14.959 3.178-35.907-35.907 3.178-14.957c1.109-5.222 3.674-9.982 7.422-13.779 1.789 2.842 3.905 5.496 6.324 7.915 7.378 7.378 16.782 11.856 26.834 12.972 1.116 10.051 5.593 19.455 12.972 26.833 2.419 2.419 5.073 4.535 7.915 6.324-3.797 3.747-8.557 6.312-13.779 7.421zm28.604-22.244c-3.2-1.255-6.118-3.163-8.598-5.643-4.917-4.916-7.522-11.449-7.379-18.284l186.15-186.15 19.951 19.951zm204.267-204.268-54.045-54.045 10.794-10.794 54.045 54.045zm74.891-74.891-25.017 25.018-54.046-54.045 25.018-25.019c7.218-7.218 16.815-11.193 27.022-11.193s19.805 3.975 27.022 11.193c14.902 14.901 14.902 39.145.001 54.046z"/></g></g><g><g><path d="m502 331.672c-5.523 0-10 4.477-10 10v144.711c0 3.1-2.523 5.623-5.622 5.623h-388.028c-3.391 0-4.762-2.427-5.194-3.471s-1.179-3.73 1.219-6.127l35.386-35.386 14.271 14.271c1.953 1.953 4.512 2.929 7.071 2.929s5.119-.976 7.071-2.929c3.905-3.905 3.905-10.237 0-14.143l-14.27-14.271 46.48-46.48 14.27 14.27c1.953 1.953 4.512 2.929 7.071 2.929s5.119-.976 7.071-2.929c3.905-3.905 3.905-10.237 0-14.143l-14.27-14.27 46.48-46.48 14.27 14.27c1.953 1.953 4.512 2.929 7.071 2.929 2.56 0 5.118-.977 7.071-2.929 3.905-3.905 3.905-10.237 0-14.142l-14.27-14.27 46.48-46.48 14.27 14.27c1.953 1.953 4.512 2.929 7.071 2.929 2.56 0 5.118-.977 7.071-2.929 3.905-3.905 3.905-10.237 0-14.142l-14.27-14.27 46.48-46.48 14.27 14.27c1.953 1.953 4.512 2.929 7.071 2.929s5.118-.977 7.071-2.929c3.905-3.905 3.905-10.237 0-14.142l-14.271-14.27 46.48-46.48 14.27 14.27c1.953 1.953 4.512 2.929 7.071 2.929s5.118-.977 7.071-2.929c3.905-3.905 3.905-10.237 0-14.142l-14.27-14.271 35.386-35.386c2.398-2.398 5.084-1.651 6.127-1.219 1.044.432 3.471 1.804 3.471 5.194v133.317c0 5.523 4.477 10 10 10 5.522 0 10-4.477 10-10v-133.318c0-10.4-6.209-19.692-15.817-23.672-9.604-3.979-20.568-1.8-27.923 5.554l-388.024 388.028c-7.354 7.354-9.535 18.314-5.555 27.923s13.271 15.817 23.672 15.817h388.028c14.128 0 25.622-11.494 25.622-25.623v-144.71c0-5.523-4.477-10-10-10z"/><path d="m502.01 277.005h-.01c-5.523 0-9.995 4.477-9.995 10s4.482 10 10.005 10 10-4.477 10-10-4.477-10-10-10z"/><path d="m424.929 222.563-202.371 202.371c-2.86 2.86-3.715 7.161-2.168 10.898 1.548 3.737 5.194 6.173 9.239 6.173l202.371.001c2.652 0 5.195-1.054 7.071-2.929 1.875-1.875 2.929-4.419 2.929-7.071v-202.372c0-4.044-2.436-7.691-6.173-9.239s-8.039-.691-10.898 2.168zm-2.929 199.443-168.229-.001 168.229-168.228z"/></g></g></g></svg>