<?xml version="1.0" encoding="iso-8859-1"?>
<!-- Generator: Adobe Illustrator 18.1.1, SVG Export Plug-In . SVG Version: 6.00 Build 0)  -->
<svg version="1.1" id="Capa_1" xmlns="http://www.w3.org/2000/svg" xmlns:xlink="http://www.w3.org/1999/xlink" x="0px" y="0px"
	 viewBox="0 0 472.189 472.189" style="enable-background:new 0 0 472.189 472.189;" xml:space="preserve">
<g>
	<g>
		<g>
			<path style="fill:#010002;" d="M335.328,332.459V44.569c0-13.079-10.64-23.711-23.719-23.711H23.711
				C10.632,20.858,0,31.482,0,44.569v287.89c0,13.079,10.624,23.719,23.711,23.719h287.898
				C324.688,356.178,335.328,345.546,335.328,332.459z M311.316,311.422c0,11.437-9.315,20.752-20.752,20.752h-245.8
				c-11.437,0-20.752-9.315-20.752-20.752V65.614c0-11.437,9.315-20.736,20.752-20.736h245.8c11.437,0,20.752,9.299,20.752,20.736
				V311.422z"/>
		</g>
		<g>
			<path style="fill:#010002;" d="M448.47,116.011h-95.356v3.633v3.13v24.028h74.32c7.722,0,13.957,6.259,13.957,13.965v245.8
				c0,7.69-6.235,13.957-13.957,13.957H181.625c-7.698,0-13.973-6.267-13.973-13.957v-28.361h-3.633h-3.13h-24.012v49.397
				c0,13.079,10.632,23.727,23.695,23.727H448.47c13.079,0,23.719-10.648,23.719-23.727V139.722
				C472.189,126.635,461.549,116.011,448.47,116.011z"/>
		</g>
	</g>
</g>
<g>
</g>
<g>
</g>
<g>
</g>
<g>
</g>
<g>
</g>
<g>
</g>
<g>
</g>
<g>
</g>
<g>
</g>
<g>
</g>
<g>
</g>
<g>
</g>
<g>
</g>
<g>
</g>
<g>
</g>
</svg>
