<?xml version="1.0" encoding="iso-8859-1"?>
<!-- Generator: Adobe Illustrator 19.0.0, SVG Export Plug-In . SVG Version: 6.00 Build 0)  -->
<svg version="1.1" id="Capa_1" xmlns="http://www.w3.org/2000/svg" xmlns:xlink="http://www.w3.org/1999/xlink" x="0px" y="0px"
	 viewBox="0 0 512.002 512.002" style="enable-background:new 0 0 512.002 512.002;" xml:space="preserve">
<g>
	<g>
		<path d="M174.035,425.048l-5.17-17.813c-1.161-4.003-4.387-7.143-8.419-8.198l-31.648-8.274c-0.992-0.259-2.009-0.391-3.025-0.391
			c-3.427,0-6.693,1.489-8.959,4.085c-2.257,2.586-3.284,6.023-2.82,9.427l2.399,17.598c0.663,4.869,4.173,8.774,8.943,9.948
			l34.42,8.491c0.943,0.233,1.91,0.351,2.872,0.351c3.708,0,7.26-1.782,9.502-4.768C174.395,432.488,175.09,428.677,174.035,425.048
			z M130.59,417.715l-1.614-11.84l26.314,6.88l3.457,11.907L130.59,417.715z"/>
	</g>
</g>
<g>
	<g>
		<path d="M395.251,394.457c-2.264-2.596-5.529-4.085-8.957-4.085c-1.016,0-2.034,0.132-3.025,0.391l-31.648,8.274
			c-4.031,1.054-7.257,4.195-8.418,8.197l-5.172,17.814c-1.054,3.629-0.36,7.439,1.905,10.456c2.241,2.985,5.794,4.768,9.501,4.768
			c0.001,0,0.001,0,0.001,0c0.962,0,1.929-0.118,2.872-0.351l34.418-8.49c4.771-1.176,8.281-5.08,8.944-9.948l2.398-17.598
			C398.535,400.479,397.507,397.042,395.251,394.457z M381.478,417.715l-28.157,6.946l3.457-11.907l26.314-6.88L381.478,417.715z"/>
	</g>
</g>
<g>
	<g>
		<path d="M427.503,301.184h-18.692c-7.592,0-13.77,6.177-13.77,13.77v3.147l-20.494-64.578
			c-4.183-13.181-16.284-22.037-30.115-22.037H167.635c-13.828,0-25.931,8.856-30.115,22.037l-23.023,72.546l-0.483-0.616
			c0.635-1.597,0.975-3.313,0.975-5.083v-5.416c0-7.592-6.177-13.77-13.77-13.77H82.528c-7.592,0-13.77,6.177-13.77,13.77v5.416
			c0,7.592,6.177,13.77,13.77,13.77h18.692c0.351,0,0.698-0.025,1.045-0.051l4.046,5.162c-9.415,8.869-15.31,21.435-15.31,35.36
			v59.458c0,11.559,7.524,21.388,17.93,24.864v19.019c0,12.19,9.917,22.107,22.106,22.107h21.966
			c12.19,0,22.107-9.917,22.107-22.107v-17.671h161.849v17.671c0,12.19,9.917,22.107,22.106,22.107h21.965
			c12.19,0,22.107-9.917,22.107-22.107v-19.019c10.405-3.476,17.93-13.304,17.93-24.864v-59.458
			c0-14.501-6.392-27.531-16.497-36.443l3.197-4.079c0.346,0.026,0.693,0.051,1.044,0.051h18.692c7.592,0,13.77-6.177,13.77-13.77
			v-5.416C441.272,307.362,435.095,301.184,427.503,301.184z M100.414,319.565h-17.08v-3.805h17.08V319.565z M151.412,257.933
			c2.254-7.101,8.774-11.872,16.223-11.872h176.798c7.45,0,13.969,4.77,16.223,11.871l21.943,69.142
			c-0.023-0.005-0.046-0.009-0.069-0.013c-0.044-0.009-0.088-0.018-0.132-0.028c-0.201-0.042-0.404-0.077-0.605-0.116
			c-0.003-0.001-0.006-0.001-0.009-0.002c-0.293-0.057-0.586-0.117-0.881-0.169c-0.209-0.037-0.42-0.067-0.63-0.101
			c-0.224-0.036-0.447-0.074-0.673-0.107c-0.114-0.017-0.227-0.035-0.342-0.051c-0.255-0.036-0.511-0.064-0.766-0.096
			c-0.296-0.037-0.592-0.077-0.89-0.108c-0.036-0.004-0.071-0.009-0.106-0.013c-0.113-0.012-0.227-0.019-0.34-0.029
			c-0.108-0.01-0.217-0.018-0.325-0.028c-0.26-0.023-0.518-0.052-0.778-0.071l-20.871-66.465c-1.49-4.708-5.809-7.871-10.749-7.871
			H167.636c-4.935,0-9.255,3.161-10.754,7.882l-20.921,66.459c-0.063,0.005-0.125,0.015-0.188,0.02
			c-0.29,0.023-0.579,0.047-0.868,0.075c-0.11,0.011-0.221,0.017-0.331,0.029c-0.608,0.063-1.214,0.139-1.819,0.225
			c-0.067,0.009-0.132,0.021-0.199,0.031c-0.01,0.001-0.019,0.003-0.029,0.005c-0.243,0.036-0.484,0.074-0.726,0.113
			c-0.515,0.084-1.029,0.176-1.54,0.276c-0.196,0.038-0.393,0.072-0.588,0.113c-0.054,0.011-0.107,0.023-0.161,0.034
			c-0.015,0.003-0.03,0.005-0.045,0.008L151.412,257.933z M360.734,326.009H151.285l18.771-59.629h171.953L360.734,326.009z
			 M127.891,342.667c0.041-0.015,0.082-0.032,0.123-0.047c0.125-0.046,0.253-0.085,0.379-0.129c0.535-0.187,1.075-0.361,1.619-0.521
			c0.164-0.048,0.33-0.095,0.495-0.141c0.036-0.01,0.072-0.02,0.108-0.03c0.544-0.149,1.093-0.284,1.645-0.406
			c0.16-0.035,0.319-0.074,0.479-0.107c0.659-0.136,1.323-0.252,1.991-0.348c0.163-0.023,0.327-0.041,0.49-0.063
			c0.554-0.072,1.11-0.129,1.669-0.174c0.094-0.007,0.187-0.015,0.281-0.021c0.107-0.008,0.214-0.017,0.321-0.023
			c0.701-0.043,1.403-0.073,2.108-0.073c0.001,0,0.002,0,0.004,0h1.747h229.31h1.805c0.706,0,1.409,0.03,2.111,0.073
			c0.114,0.007,0.227,0.017,0.34,0.025c0.087,0.006,0.173,0.013,0.26,0.02c0.561,0.045,1.119,0.102,1.675,0.174
			c0.161,0.021,0.324,0.039,0.484,0.062c0.668,0.096,1.333,0.213,1.993,0.348c0.16,0.033,0.319,0.071,0.479,0.107
			c0.552,0.122,1.1,0.257,1.645,0.406c0.041,0.011,0.082,0.022,0.123,0.034c0.159,0.044,0.318,0.089,0.476,0.135
			c0.549,0.161,1.093,0.337,1.633,0.525c0.121,0.043,0.245,0.08,0.366,0.124c0.043,0.016,0.085,0.033,0.127,0.049
			c0.403,0.148,0.799,0.316,1.197,0.479c-8.001,22.31-29.154,37.444-53.271,37.444H179.965c-24.117,0-45.27-15.134-53.271-37.444
			C127.091,342.982,127.487,342.815,127.891,342.667z M160.534,477.951c0,4.152-3.379,7.531-7.531,7.531h-21.966
			c-4.152,0-7.531-3.379-7.531-7.531v-17.67h37.028V477.951z M190.164,445.679v-6.921c0-4.924,4.006-8.929,8.93-8.929h113.879
			c4.924,0,8.93,4.005,8.93,8.929v6.921H190.164z M388.561,477.951c0,4.152-3.379,7.531-7.531,7.531h-21.965
			c-4.152,0-7.531-3.379-7.531-7.531v-17.67h37.027V477.951z M406.491,374.611v59.458c0,6.145-4.792,11.181-10.834,11.597
			c-0.061,0.002-0.122-0.003-0.184,0l-0.439,0.028l-50.787,0.013h-7.768v-6.948c0-12.96-10.544-23.504-23.505-23.504h-113.88
			c-12.961,0-23.505,10.544-23.505,23.504v6.948h-58.344l-0.652-0.041c-0.062-0.003-0.123,0.002-0.184,0
			c-6.041-0.416-10.833-5.452-10.833-11.597v-59.458c0-8.793,3.353-16.818,8.847-22.863c10.991,26.027,36.559,43.417,65.542,43.417
			h152.137c28.983,0,54.55-17.391,65.542-43.417C403.138,357.793,406.491,365.818,406.491,374.611z M426.697,319.565h-17.08v-3.805
			h17.08V319.565z"/>
	</g>
</g>
<g>
	<g>
		<path d="M506.449,128.103L257.32,13.215c-1.829-0.844-3.778-1.272-5.792-1.272c-2.052,0-4.115,0.468-5.967,1.354L5.43,128.138
			C2.131,129.715,0,133.097,0,136.753v24.061c0,4.054,2.543,7.517,6.115,8.901v319.622c0,5.912,4.809,10.722,10.721,10.722h38.542
			c5.912,0,10.722-4.81,10.722-10.722V199.324h379.802v290.013c0,5.912,4.81,10.722,10.722,10.722h38.542
			c5.912,0,10.721-4.81,10.721-10.722V169.714c3.571-1.384,6.115-4.847,6.115-8.901v-24.038
			C512,133.063,509.822,129.66,506.449,128.103z M51.524,192.036v293.447H20.69V170.364h30.834V192.036z M445.901,184.748H66.099
			v-14.384h379.802V184.748z M491.31,485.483h-30.834V192.036v-21.672h30.834V485.483z M497.425,155.789h-44.236H58.811H14.575
			V139.92L251.533,26.597l245.892,113.394V155.789z"/>
	</g>
</g>
<g>
</g>
<g>
</g>
<g>
</g>
<g>
</g>
<g>
</g>
<g>
</g>
<g>
</g>
<g>
</g>
<g>
</g>
<g>
</g>
<g>
</g>
<g>
</g>
<g>
</g>
<g>
</g>
<g>
</g>
</svg>
