<svg height="512" viewBox="0 0 128 128" width="512" xmlns="http://www.w3.org/2000/svg"><g><path d="m106.082 38.67-37.455-20.249a9.7 9.7 0 0 0 -9.254 0l-37.456 20.249a8.892 8.892 0 0 0 -4.667 7.83v59.529a4.728 4.728 0 0 0 4.723 4.723h84.054a4.728 4.728 0 0 0 4.723-4.723v-59.529a8.891 8.891 0 0 0 -4.668-7.83zm-72.794 45.247h61.424v9.862h-61.424zm61.424-3.5h-61.424v-9.863h61.424zm-61.424 16.862h61.424v9.864h-61.424zm61.424-30.225h-61.424v-9.864h61.424zm12.538 38.973a1.224 1.224 0 0 1 -1.223 1.223h-7.815v-51.81a1.75 1.75 0 0 0 -1.75-1.75h-64.924a1.75 1.75 0 0 0 -1.75 1.75v51.81h-7.815a1.224 1.224 0 0 1 -1.223-1.223v-59.527a5.4 5.4 0 0 1 2.831-4.75l37.456-20.25a6.213 6.213 0 0 1 5.926 0l37.455 20.249a5.394 5.394 0 0 1 2.832 4.75z"/><path d="m64 32.891a7.326 7.326 0 1 0 7.326 7.325 7.334 7.334 0 0 0 -7.326-7.325zm0 11.151a3.826 3.826 0 1 1 3.826-3.826 3.831 3.831 0 0 1 -3.826 3.826z"/></g></svg>