<svg height="512pt" viewBox="0 0 512.0003 512" width="512pt" xmlns="http://www.w3.org/2000/svg"><path d="m496.886719 81.683594-22.679688-22.679688 26.121094-26.121094c5.859375-5.855468 5.859375-15.355468 0-21.210937-5.859375-5.859375-15.355469-5.859375-21.214844 0l-26.121093 26.117187-22.675782-22.679687c-11.527344-11.523437-28.035156-16.957031-44.167968-14.546875l-93.96875 14.0625c-10.882813 1.628906-21.160157 6.8125-28.941407 14.59375l-248.101562 248.097656c-20.167969 20.167969-20.183594 52.964844-.042969 73.109375l146.480469 146.476563c10.0625 10.066406 23.285156 15.097656 36.511719 15.097656 13.25 0 26.503906-5.046875 36.59375-15.140625l248.101562-248.097656c7.78125-7.785157 12.964844-18.0625 14.59375-28.941407l14.0625-93.96875c2.414062-16.132812-3.023438-32.640624-14.550781-44.167968zm-15.121094 39.726562-14.0625 93.972656c-.683594 4.570313-2.863281 8.890626-6.136719 12.164063l-248.097656 248.097656c-4.109375 4.109375-9.5625 6.371094-15.363281 6.375-.003907 0-.011719 0-.019531 0-5.78125 0-11.214844-2.246093-15.296876-6.332031l-146.480468-146.476562c-4.085938-4.089844-6.335938-9.527344-6.332032-15.316407.007813-5.800781 2.269532-11.257812 6.375-15.363281l248.101563-248.097656c3.273437-3.273438 7.59375-5.453125 12.167969-6.136719l93.96875-14.0625c1.058594-.160156 2.121094-.234375 3.179687-.234375 5.699219 0 11.261719 2.257812 15.332031 6.328125l22.679688 22.675781-24.621094 24.621094c-6.234375-3.050781-13.128906-4.675781-20.277344-4.675781-12.328124 0-23.921874 4.804687-32.644531 13.523437-17.996093 18-17.996093 47.289063.003907 65.285156 8.71875 8.71875 20.3125 13.523438 32.640624 13.523438 12.332032 0 23.925782-4.804688 32.644532-13.523438s13.523437-20.3125 13.523437-32.640624c0-7.148438-1.625-14.042969-4.675781-20.277344l24.621094-24.621094 22.675781 22.679688c4.828125 4.828124 7.105469 11.75 6.09375 18.511718zm-78.71875 3.703125c0 4.320313-1.679687 8.378907-4.734375 11.429688-3.050781 3.050781-7.109375 4.734375-11.429688 4.734375-4.316406 0-8.375-1.679688-11.425781-4.734375-6.300781-6.300781-6.300781-16.558594 0-22.859375 3.050781-3.050782 7.109375-4.730469 11.425781-4.730469 4.320313 0 8.378907 1.679687 11.429688 4.730469 3.054688 3.054687 4.734375 7.113281 4.734375 11.429687zm0 0"/><path d="m183.746094 228.351562c-5.855469-5.859374-15.355469-5.859374-21.210938 0l-69.050781 69.046876c-5.855469 5.859374-5.855469 15.359374 0 21.214843 2.929687 2.929688 6.769531 4.394531 10.609375 4.394531 3.835938 0 7.675781-1.464843 10.605469-4.394531l69.046875-69.046875c5.859375-5.859375 5.859375-15.355468 0-21.214844zm0 0"/><path d="m289.511719 222.484375c-5.855469-5.855469-15.355469-5.855469-21.210938 0l-124.875 124.875c-5.859375 5.859375-5.859375 15.355469 0 21.214844 2.929688 2.929687 6.769531 4.394531 10.605469 4.394531 3.839844 0 7.679688-1.464844 10.609375-4.394531l124.871094-124.875c5.859375-5.855469 5.859375-15.355469 0-21.214844zm0 0"/><path d="m318.25 272.433594-124.875 124.875c-5.859375 5.859375-5.859375 15.355468 0 21.214844 2.929688 2.929687 6.769531 4.394531 10.609375 4.394531 3.835937 0 7.675781-1.464844 10.605469-4.394531l124.871094-124.875c5.859374-5.855469 5.859374-15.355469 0-21.214844-5.855469-5.855469-15.355469-5.855469-21.210938 0zm0 0"/></svg>